<svg clip-rule="evenodd" fill-rule="evenodd" stroke-linejoin="round" stroke-miterlimit="2" viewBox="0 0 560 400" xmlns="http://www.w3.org/2000/svg" xmlns:xlink="http://www.w3.org/1999/xlink"><linearGradient id="a" gradientUnits="userSpaceOnUse" x1=".2934" x2="40.1478" y1="20.3264" y2="20.3264"><stop offset="0" stop-color="#f9b848"/><stop offset=".14" stop-color="#f5ae4c"/><stop offset=".37" stop-color="#ec9357"/><stop offset=".68" stop-color="#dc6669"/><stop offset="1" stop-color="#c9317f"/></linearGradient><clipPath id="b"><path clip-rule="evenodd" d="m7.8 28.2c0-2.2 1.8-3.9 3.9-3.9h19.5v3.9c0 2.2-1.8 3.9-3.9 3.9h-15.6c-2.1 0-3.9-1.7-3.9-3.9m-3.4-27.3 2.3 7.8h20.7c2.2 0 3.9 1.8 3.9 3.9v3.9h-19.6c-6.4 0-11.7 5.3-11.7 11.7 0 6.5 5.3 11.8 11.7 11.8h15.6c6.5 0 11.7-5.3 11.7-11.7v-15.6c0-6.5-5.3-11.7-11.7-11.7h-22.9z"/></clipPath><g transform="matrix(2.30179 0 0 2.30179 73.2992 152.928)"><g clip-path="url(#b)"><path d="m.3 0h39.9v40.7h-39.9z" fill="url(#a)"/></g><path d="m50.2 16.5h-7.1v7.8h9.4z" fill="#c9317f" fill-rule="nonzero"/><path d="m78.7 28.3h-3.4v-1.9c-1.1 1.4-2.7 2.3-4.9 2.3-4.4 0-7.8-3.4-7.8-8.2s3.4-8.2 7.8-8.2c2.2 0 3.8.9 4.9 2.3v-1.9h3.4zm-12.6-7.8c0 2.7 1.8 5 4.7 5 2.8 0 4.7-2.2 4.7-5 0-2.9-1.9-5-4.7-5-2.9 0-4.7 2.2-4.7 5zm42.1-2v9.8h-3.4v-8.7c0-2.6-1.4-4.1-3.6-4.1s-4.1 1.5-4.1 4.1v8.7h-3.4v-8.7c0-2.6-1.4-4.1-3.6-4.1s-4.1 1.5-4.1 4.1v8.7h-3.4v-15.7h3.4v1.9c1.3-1.8 3.2-2.3 4.8-2.3 2.4 0 4.3 1.1 5.4 2.8 1.4-2.2 3.8-2.8 5.7-2.8 3.6 0 6.3 2.6 6.3 6.3zm39 2c0 4.7-3.6 8.2-8.4 8.2s-8.4-3.5-8.4-8.2 3.6-8.2 8.4-8.2c4.8-.1 8.4 3.5 8.4 8.2zm-13.3 0c0 3 2.1 5 4.9 5s4.9-2.1 4.9-5c0-3-2.1-5-4.9-5s-4.9 2-4.9 5zm29.8-5.8-2.2 2.3c-1.1-1-2.3-1.6-3.8-1.6-2.6 0-4.6 2.1-4.6 5 0 3 2 5 4.6 5 1.5 0 2.8-.7 3.8-1.6l2.1 2.4c-1.4 1.6-3.5 2.5-5.9 2.5-5 0-8.2-3.5-8.2-8.2s3.2-8.2 8.2-8.2c2.5-.1 4.6.8 6 2.4zm14.1 1.9c-.9-.6-2.9-1.3-4.8-1.3s-3 .8-3 1.9 1.1 1.4 2.6 1.6l1.6.2c3.4.5 5.4 1.9 5.4 4.6 0 3-2.6 5.1-7.1 5.1-1.6 0-4.4-.3-6.7-2l1.6-2.6c1.1.9 2.6 1.6 5.2 1.6 2.3 0 3.6-.7 3.6-1.9 0-.9-.8-1.5-2.7-1.7l-1.6-.2c-3.5-.5-5.3-2.1-5.3-4.6 0-3.1 2.5-5 6.5-5 2.5 0 4.7.6 6.3 1.7zm-54-2.1v-5.7l3.4-1.2v20.7h-3.4v-1.9c-1.1 1.4-2.7 2.3-4.9 2.3-4.4 0-7.8-3.4-7.8-8.2s3.4-8.2 7.8-8.2c2.2-.1 3.8.8 4.9 2.2zm-9.2 6c0 2.7 1.8 5 4.7 5 2.8 0 4.7-2.2 4.7-5 0-2.9-1.9-5-4.7-5-2.9 0-4.7 2.2-4.7 5z" fill="#362f45"/></g></svg>