<svg width="500" height="97" viewBox="0 0 500 97" fill="none" xmlns="http://www.w3.org/2000/svg">
<path fill-rule="evenodd" clip-rule="evenodd" d="M146.38 52.3349H150.943C149.163 60.5236 142.205 66.0377 132.91 66.0377C122 66.0377 113.208 57.9009 113.208 47.1439C113.208 36.3844 122 28.3019 132.91 28.3019C142.203 28.3019 149.16 33.7618 150.943 41.9505H146.38C144.821 36.0094 139.811 32.2641 132.913 32.2641C124.34 32.2641 117.66 38.6321 117.66 47.1439C117.66 55.6557 124.34 62.0778 132.91 62.0778C139.811 62.0778 144.823 58.2217 146.38 52.3349ZM198.113 47.1698C198.113 57.6769 189.693 66.0377 179.245 66.0377C168.797 66.0377 160.377 57.6769 160.377 47.1698C160.377 36.6627 168.797 28.3019 179.245 28.3019C189.693 28.3019 198.113 36.6627 198.113 47.1698ZM193.849 47.1698C193.849 38.9151 187.455 32.2689 179.245 32.2689C171.038 32.2689 164.642 38.9151 164.642 47.1698C164.642 55.4245 171.038 62.0707 179.245 62.0707C187.453 62.0707 193.849 55.4245 193.849 47.1698ZM242.925 28.3019V66.0377H239.434L216.439 36.2924V66.0377H212.264V28.3019H215.649L238.748 58.4363V28.3019H242.925ZM263.821 32.3538V46.2264H283.042V50.2759H263.821V66.0377H259.434V28.3019H285.377V32.3538H263.821ZM325.472 61.9858V66.0377H299.528V28.3019H304.042V61.9858H325.472ZM365.566 49.5141C365.566 59.3844 358.986 66.0377 349.057 66.0377C339.127 66.0377 332.547 59.3868 332.547 49.5141V28.3019H337.028V49.5141C337.028 56.7665 341.792 62.0024 349.057 62.0024C356.262 62.0024 361.085 56.7665 361.085 49.5141V28.3019H365.566V49.5141ZM386.382 32.3538V45.283H405.84V49.3349H386.382V61.9882H408.019V66.0377H382.075V28.3019H408.019V32.3538H386.382ZM450.472 28.3019V66.0377H446.981L423.986 36.2924V66.0377H419.811V28.3019H423.196L446.295 58.4363V28.3019H450.472ZM495.283 32.3538H482.014V66.0377H477.84V32.3538H464.623V28.3019H495.283V32.3538ZM62.2052 49.4693C64.2689 49.3585 66.3325 49.2924 68.3962 49.1415V47.5566C66.3325 47.4057 64.2689 47.3396 62.2052 47.2264L56.0141 47.0354C52.3821 46.9245 48.75 46.8939 45.1132 46.8703C45.1178 43.2355 45.0777 39.6008 44.9929 35.967L44.8184 29.7759C44.7123 27.7123 44.6533 25.6486 44.5071 23.5849H42.7571C42.6108 25.6486 42.5519 27.7123 42.4458 29.7759L42.2736 35.967C42.2264 37.6722 42.2052 39.3797 42.1887 41.0849C41.5165 39.5165 40.8443 37.9481 40.1486 36.3891L37.6203 30.7358C36.7311 28.8726 35.8868 26.9858 34.9623 25.1344L33.3491 25.8066C34.0024 27.7665 34.7382 29.6981 35.4292 31.6439L37.6391 37.4316C38.2476 39.0236 38.8797 40.6061 39.5165 42.191C38.3 40.9945 37.0736 39.8081 35.8373 38.6321L31.3373 34.3774C29.8042 32.9929 28.3019 31.5755 26.7382 30.2193L25.5047 31.4552C26.8585 33.0189 28.2759 34.5212 29.6604 36.0542L33.9151 40.5542C35.0928 41.7901 36.2791 43.0165 37.4741 44.2335C35.8891 43.5967 34.3066 42.9646 32.7123 42.3561L26.9269 40.1462C24.9811 39.4552 23.0495 38.7193 21.0873 38.0637L20.4174 39.6792C22.2689 40.6038 24.1533 41.4481 26.0189 42.3373L31.6722 44.8656C33.2288 45.5613 34.7972 46.2335 36.3656 46.9033C34.6604 46.9222 32.9552 46.9434 31.2476 46.9882L25.059 47.1627C22.9953 47.2689 20.9316 47.3278 18.8679 47.474V49.2241C20.9316 49.3703 22.9953 49.4292 25.059 49.5354L31.25 49.7075C34.8868 49.8066 38.5212 49.8231 42.1557 49.8302C42.1792 53.4623 42.2075 57.0967 42.3184 60.7311L42.5118 66.9222C42.6226 68.9858 42.6887 71.0495 42.8396 73.1132H44.4245C44.5755 71.0495 44.6415 68.9858 44.7547 66.9222L44.9457 60.7311C45 58.9835 45.0283 57.2358 45.0542 55.4882C45.7398 57.0951 46.441 58.6965 47.158 60.2924L49.7052 65.9363C50.5967 67.7995 51.4458 69.6816 52.3774 71.533L53.8396 70.9222C53.191 68.9599 52.4646 67.0283 51.7759 65.0778L49.5825 59.2877C48.9615 57.6525 48.3263 56.0236 47.6769 54.4009C48.9253 55.6226 50.1863 56.8333 51.4599 58.033L55.9717 62.2759C57.5094 63.6557 59.0141 65.0684 60.5825 66.4222L61.7052 65.2995C60.3514 63.7335 58.9387 62.2264 57.559 60.6887L53.316 56.1745C52.1168 54.9041 50.9068 53.6439 49.6863 52.3939C51.3074 53.0432 52.9347 53.6792 54.5684 54.3019L60.3632 56.4929C62.3113 57.1816 64.2429 57.908 66.2075 58.559L66.816 57.092C64.9646 56.1651 63.0849 55.3113 61.2193 54.4198L55.5755 51.8726C53.9811 51.1557 52.3774 50.4623 50.7736 49.7689C52.5189 49.7453 54.2665 49.717 56.0141 49.6627L62.2052 49.4693Z" fill="#173361"/>
<path fill-rule="evenodd" clip-rule="evenodd" d="M44.8114 87.2642C22.7029 87.2642 4.71704 69.2783 4.71704 47.1698C4.71704 25.0614 22.7029 7.0755 44.8114 7.0755C66.9199 7.0755 84.9057 25.0614 84.9057 47.1698C84.9057 69.2783 66.9199 87.2642 44.8114 87.2642ZM44.8114 10.8255C24.7713 10.8255 8.46704 27.1274 8.46704 47.1698C8.46704 67.2123 24.7713 83.5142 44.8114 83.5142C64.8515 83.5142 81.1557 67.2099 81.1557 47.1698C81.1557 27.1297 64.8515 10.8255 44.8114 10.8255Z" fill="#173361"/>
</svg>
