<svg id="Layer_1" xmlns="http://www.w3.org/2000/svg" width="530" height="150" viewBox="0 0 106 30"><defs><style>.cls-1{fill:#3a8dde;stroke-width:0px;}</style></defs><path id="Path_132192" class="cls-1" d="m0,3.6367661v3.0920038h8.4499998v21.0210252h3.2399998V6.7287698h8.4499998v-3.0920038H0Z" /><rect id="Rectangle_31136" class="cls-1" x="23.9969997" y="3.6367661" width="3.2409999" height="24.1130304" /><g id="Group_27350"><g id="Group_27349-2"><path id="Path_132193" class="cls-1" d="m50.1069984,20.9217875c0,4.0890057-2.7389984,6.8280094-8.9510002,6.8280094h-8.2219963V3.6367661h7.9869995c5.8270035,0,8.4110031,2.6230029,8.4110031,6.4000079,0,2.4690029-1.4280014,4.2820048-4.1279984,5.2860058,3.1999969.8100005,4.9000015,2.8940045,4.9000015,5.5950062m-8.909008-14.2720163h-4.9770012v7.5620091h4.4749985c3.4720001,0,5.362999-1.5430021,5.362999-3.9000044,0-2.3150034-1.6999969-3.6660044-4.8610001-3.6660044m-.2319946,10.5370131h-4.7450027v7.5620095h5.2470016c3.5879974,0,5.362999-1.2740017,5.362999-3.7810048,0-2.7790027-2.4700012-3.7810048-5.8649979-3.7810048" /><path id="Path_132194" class="cls-1" d="m71.4850044,8.0347711c-1.9328156-1.3534491-4.2405396-2.0684954-6.5999985-2.0450026-5.2480011,0-8.7580032,3.6270043-8.7580032,9.6070121s3.5500031,9.8000122,8.8349991,9.8000122c2.4680939-.0404358,4.8593674-.8648425,6.8280029-2.354003l.5400009,3.2800047c-2.2568436,1.3251416-4.8289032,2.0180708-7.4459991,2.006003-7.060997,0-12.076004-4.9000056-12.076004-12.5770151s5.0599976-12.6940172,12.0820007-12.6940172c2.6787338-.0160952,5.3141098.6762999,7.6389999,2.0070024l-1.0439987,2.9700034Z" /><path id="Path_132195" class="cls-1" d="m92.3959923,4.7597676c-.3600311-.2209108-.7322998-.4212323-1.1150055-.6000006-3.1519928,6.0430076-8.8800049,13.2320175-16.4570007,17.3210194.423027.9554798.9755402,1.8481888,1.6419983,2.6530031,6.8752136-4.993935,12.3589783-11.6632623,15.9300079-19.3740219" /><path id="Path_132196" class="cls-1" d="m90.9949989,4.0327667c-1.6555786-.704435-3.4388733-1.0591849-5.2380066-1.0420013-7.0879974,0-12.0999985,5.4710067-12.0999985,12.6750159-.0043793,1.1533027.1203995,2.3034715.3720016,3.4290031,7.2570038-2.9620035,13.7030029-9.4760114,16.9660034-15.0620177" /><path id="Path_132197" class="cls-1" d="m92.6689949,4.9257677c-3.0764771,8.0026872-7.8688049,15.2342177-14.0400009,21.1860263,2.1037827,1.4171293,4.5928879,2.1520965,7.1290054,2.1050021,7.0890045,0,12.1000061-5.510007,12.1000061-12.7130149,0-4.774006-1.9759979-8.4760102-5.1840057-10.578013" /><path id="Path_132198" class="cls-1" d="m97.852993,4.1297667v-.0190001c-.0046997-1.7198159,1.3856812-3.1178079,3.1054993-3.1225023,1.7198181-.0046944,3.1177979,1.3856864,3.1224976,3.1055023v.017c.005249,1.7198159-1.3846893,3.1182556-3.1044922,3.1235023-1.7198181.0052466-3.1182556-1.3846863-3.1235046-3.1045022m5.8699951-.0190001v-.017c.0239105-1.5224632-1.1909027-2.7760487-2.7133636-2.7999618s-2.7760468,1.1909017-2.7999573,2.7133647c-.0005341.0345314-.0004272.0690697.0003204.1035971v.0190001c-.0232697,1.5224733,1.1920776,2.7755414,2.7145538,2.7988058s2.7755432-1.1920839,2.7987976-2.7145572c.0005341-.0344155.000412-.0688377-.000351-.1032487m-3.9730072-1.646002h1.4320068c.6999969,0,1.2180023.3400004,1.2180023,1.0000013.0179443.4566828-.2901764.8620685-.7350006.9670012l.8419952,1.2000018h-.7330017l-.7519989-1.0920013h-.6629944v1.0930008h-.6080017l-.0010071-3.1680037Zm1.378006,1.5750019c.4109955,0,.6450043-.2150002.6450043-.5190007,0-.3400003-.2330017-.5190007-.6450043-.5190007h-.7700043v1.0380014h.7700043Z" /></g></g></svg>